<svg width="504" height="50" viewBox="0 0 504 50" fill="none" xmlns="http://www.w3.org/2000/svg">
<mask id="path-1-outside-1_1_4" maskUnits="userSpaceOnUse" x="0" y="0.454544" width="504" height="50" fill="black">
<rect fill="white" y="0.454544" width="504" height="50"/>
<path d="M1 1.45454H16.7273L27.5455 27.8182H28.0909L38.9091 1.45454H54.6364V48H42.2727V21.0909H41.9091L31.5455 47.6364H24.0909L13.7273 20.9091H13.3636V48H1V1.45454Z"/>
<path d="M73.4432 48.4545C70.9583 48.4545 68.6705 47.803 66.5795 46.5C64.5038 45.197 62.8371 43.2197 61.5795 40.5682C60.3371 37.9167 59.7159 34.5758 59.7159 30.5455C59.7159 26.3333 60.3674 22.9091 61.6705 20.2727C62.9886 17.6364 64.6856 15.7045 66.7614 14.4773C68.8523 13.25 71.0492 12.6364 73.3523 12.6364C75.0795 12.6364 76.5947 12.9394 77.8977 13.5455C79.2008 14.1364 80.2917 14.9318 81.1705 15.9318C82.0492 16.9167 82.7159 18 83.1705 19.1818H83.3523V1.45454H95.8977V48H83.4432V42.2727H83.1705C82.6856 43.4545 81.9886 44.5152 81.0795 45.4545C80.1856 46.3788 79.0947 47.1136 77.8068 47.6591C76.5341 48.1894 75.0795 48.4545 73.4432 48.4545ZM78.0795 38.8182C79.2311 38.8182 80.2159 38.4849 81.0341 37.8182C81.8674 37.1364 82.5038 36.1818 82.9432 34.9545C83.3977 33.7121 83.625 32.2424 83.625 30.5455C83.625 28.8182 83.3977 27.3409 82.9432 26.1136C82.5038 24.8712 81.8674 23.9242 81.0341 23.2727C80.2159 22.6061 79.2311 22.2727 78.0795 22.2727C76.928 22.2727 75.9432 22.6061 75.125 23.2727C74.322 23.9242 73.7008 24.8712 73.2614 26.1136C72.8371 27.3409 72.625 28.8182 72.625 30.5455C72.625 32.2727 72.8371 33.7576 73.2614 35C73.7008 36.2273 74.322 37.1742 75.125 37.8409C75.9432 38.4924 76.928 38.8182 78.0795 38.8182Z"/>
<path d="M114.625 48V1.45454H148.17V11.6364H127.261V19.6364H146.443V29.8182H127.261V37.8182H148.08V48H114.625Z"/>
<path d="M164.347 48.5455C162.119 48.5455 160.15 48.1818 158.438 47.4545C156.741 46.7121 155.407 45.5909 154.438 44.0909C153.468 42.5909 152.983 40.6818 152.983 38.3636C152.983 36.4545 153.309 34.8258 153.96 33.4773C154.612 32.1136 155.521 31 156.688 30.1364C157.854 29.2727 159.21 28.6136 160.756 28.1591C162.316 27.7045 163.998 27.4091 165.801 27.2727C167.756 27.1212 169.324 26.9394 170.506 26.7273C171.703 26.5 172.566 26.1894 173.097 25.7955C173.627 25.3864 173.892 24.8485 173.892 24.1818V24.0909C173.892 23.1818 173.544 22.4848 172.847 22C172.15 21.5152 171.256 21.2727 170.165 21.2727C168.968 21.2727 167.991 21.5379 167.233 22.0682C166.491 22.5833 166.044 23.3788 165.892 24.4545H154.347C154.498 22.3333 155.172 20.3788 156.369 18.5909C157.581 16.7879 159.347 15.3485 161.665 14.2727C163.983 13.1818 166.877 12.6364 170.347 12.6364C172.847 12.6364 175.089 12.9318 177.074 13.5227C179.059 14.0985 180.748 14.9091 182.142 15.9545C183.536 16.9848 184.597 18.197 185.324 19.5909C186.066 20.9697 186.438 22.4697 186.438 24.0909V48H174.71V43.0909H174.438C173.741 44.3939 172.892 45.447 171.892 46.25C170.907 47.053 169.778 47.6364 168.506 48C167.248 48.3636 165.862 48.5455 164.347 48.5455ZM168.438 40.6364C169.392 40.6364 170.286 40.4394 171.119 40.0455C171.968 39.6515 172.657 39.0833 173.188 38.3409C173.718 37.5985 173.983 36.697 173.983 35.6364V32.7273C173.65 32.8636 173.294 32.9924 172.915 33.1136C172.551 33.2348 172.157 33.3485 171.733 33.4545C171.324 33.5606 170.884 33.6591 170.415 33.75C169.96 33.8409 169.483 33.9242 168.983 34C168.013 34.1515 167.218 34.4015 166.597 34.75C165.991 35.0833 165.536 35.5 165.233 36C164.945 36.4848 164.801 37.0303 164.801 37.6364C164.801 38.6061 165.142 39.3485 165.824 39.8636C166.506 40.3788 167.377 40.6364 168.438 40.6364Z"/>
<path d="M204.977 28.3636V48H192.432V1.45454H204.523V19.7273H204.886C205.674 17.5 206.985 15.7652 208.818 14.5227C210.652 13.2652 212.856 12.6364 215.432 12.6364C217.902 12.6364 220.045 13.197 221.864 14.3182C223.697 15.4394 225.114 16.9848 226.114 18.9545C227.129 20.9242 227.629 23.1818 227.614 25.7273V48H215.068V28.3636C215.083 26.6364 214.652 25.2803 213.773 24.2955C212.909 23.3106 211.674 22.8182 210.068 22.8182C209.053 22.8182 208.159 23.0455 207.386 23.5C206.629 23.9394 206.038 24.5758 205.614 25.4091C205.205 26.2273 204.992 27.2121 204.977 28.3636Z"/>
<path d="M250.534 48.6364C246.807 48.6364 243.595 47.9242 240.898 46.5C238.216 45.0606 236.148 43 234.693 40.3182C233.254 37.6212 232.534 34.3939 232.534 30.6364C232.534 27.0303 233.261 23.8788 234.716 21.1818C236.17 18.4848 238.223 16.3864 240.875 14.8864C243.527 13.3864 246.655 12.6364 250.261 12.6364C252.898 12.6364 255.284 13.0455 257.42 13.8636C259.557 14.6818 261.383 15.8712 262.898 17.4318C264.413 18.9773 265.58 20.8561 266.398 23.0682C267.216 25.2803 267.625 27.7727 267.625 30.5455V33.4545L244.898 33.5V26.5455H256.08C256.064 25.5455 255.807 24.6667 255.307 23.9091C254.822 23.1364 254.163 22.5379 253.33 22.1136C252.511 21.6742 251.58 21.4545 250.534 21.4545C249.519 21.4545 248.587 21.6742 247.739 22.1136C246.89 22.5379 246.208 23.1288 245.693 23.8864C245.193 24.6439 244.928 25.5303 244.898 26.5455V34C244.898 35.1212 245.133 36.1212 245.602 37C246.072 37.8788 246.746 38.5682 247.625 39.0682C248.504 39.5682 249.564 39.8182 250.807 39.8182C251.67 39.8182 252.458 39.697 253.17 39.4545C253.898 39.2121 254.519 38.8636 255.034 38.4091C255.549 37.9394 255.928 37.3788 256.17 36.7273H267.625C267.231 39.1515 266.299 41.2576 264.83 43.0455C263.36 44.8182 261.413 46.197 258.989 47.1818C256.58 48.1515 253.761 48.6364 250.534 48.6364Z"/>
<path d="M282.472 48.5455C280.244 48.5455 278.275 48.1818 276.562 47.4545C274.866 46.7121 273.532 45.5909 272.562 44.0909C271.593 42.5909 271.108 40.6818 271.108 38.3636C271.108 36.4545 271.434 34.8258 272.085 33.4773C272.737 32.1136 273.646 31 274.812 30.1364C275.979 29.2727 277.335 28.6136 278.881 28.1591C280.441 27.7045 282.123 27.4091 283.926 27.2727C285.881 27.1212 287.449 26.9394 288.631 26.7273C289.828 26.5 290.691 26.1894 291.222 25.7955C291.752 25.3864 292.017 24.8485 292.017 24.1818V24.0909C292.017 23.1818 291.669 22.4848 290.972 22C290.275 21.5152 289.381 21.2727 288.29 21.2727C287.093 21.2727 286.116 21.5379 285.358 22.0682C284.616 22.5833 284.169 23.3788 284.017 24.4545H272.472C272.623 22.3333 273.297 20.3788 274.494 18.5909C275.706 16.7879 277.472 15.3485 279.79 14.2727C282.108 13.1818 285.002 12.6364 288.472 12.6364C290.972 12.6364 293.214 12.9318 295.199 13.5227C297.184 14.0985 298.873 14.9091 300.267 15.9545C301.661 16.9848 302.722 18.197 303.449 19.5909C304.191 20.9697 304.562 22.4697 304.562 24.0909V48H292.835V43.0909H292.562C291.866 44.3939 291.017 45.447 290.017 46.25C289.032 47.053 287.903 47.6364 286.631 48C285.373 48.3636 283.987 48.5455 282.472 48.5455ZM286.562 40.6364C287.517 40.6364 288.411 40.4394 289.244 40.0455C290.093 39.6515 290.782 39.0833 291.312 38.3409C291.843 37.5985 292.108 36.697 292.108 35.6364V32.7273C291.775 32.8636 291.419 32.9924 291.04 33.1136C290.676 33.2348 290.282 33.3485 289.858 33.4545C289.449 33.5606 289.009 33.6591 288.54 33.75C288.085 33.8409 287.608 33.9242 287.108 34C286.138 34.1515 285.343 34.4015 284.722 34.75C284.116 35.0833 283.661 35.5 283.358 36C283.07 36.4848 282.926 37.0303 282.926 37.6364C282.926 38.6061 283.267 39.3485 283.949 39.8636C284.631 40.3788 285.502 40.6364 286.562 40.6364Z"/>
<path d="M323.125 48V1.45454H343.216C346.67 1.45454 349.693 2.08333 352.284 3.34091C354.875 4.59848 356.89 6.40909 358.33 8.77273C359.769 11.1364 360.489 13.9697 360.489 17.2727C360.489 20.6061 359.746 23.4167 358.261 25.7045C356.792 27.9924 354.723 29.7197 352.057 30.8864C349.405 32.053 346.307 32.6364 342.761 32.6364H335.761V22.8182H340.216C341.701 22.8182 342.966 22.6364 344.011 22.2727C345.072 21.8939 345.883 21.2955 346.443 20.4773C347.019 19.6591 347.307 18.5909 347.307 17.2727C347.307 15.9394 347.019 14.8561 346.443 14.0227C345.883 13.1742 345.072 12.553 344.011 12.1591C342.966 11.75 341.701 11.5455 340.216 11.5455H335.761V48H323.125ZM352.057 30.8864L362.034 48H348.307L340.593 32.6364H342.475L344 32.6119L345.5 32.5L348.5 32L350.5 31.5L352.057 30.8864Z"/>
<path d="M375.784 48.5455C373.557 48.5455 371.587 48.1818 369.875 47.4545C368.178 46.7121 366.845 45.5909 365.875 44.0909C364.905 42.5909 364.42 40.6818 364.42 38.3636C364.42 36.4545 364.746 34.8258 365.398 33.4773C366.049 32.1136 366.958 31 368.125 30.1364C369.292 29.2727 370.648 28.6136 372.193 28.1591C373.754 27.7045 375.436 27.4091 377.239 27.2727C379.193 27.1212 380.761 26.9394 381.943 26.7273C383.14 26.5 384.004 26.1894 384.534 25.7955C385.064 25.3864 385.33 24.8485 385.33 24.1818V24.0909C385.33 23.1818 384.981 22.4848 384.284 22C383.587 21.5152 382.693 21.2727 381.602 21.2727C380.405 21.2727 379.428 21.5379 378.67 22.0682C377.928 22.5833 377.481 23.3788 377.33 24.4545H365.784C365.936 22.3333 366.61 20.3788 367.807 18.5909C369.019 16.7879 370.784 15.3485 373.102 14.2727C375.42 13.1818 378.314 12.6364 381.784 12.6364C384.284 12.6364 386.527 12.9318 388.511 13.5227C390.496 14.0985 392.186 14.9091 393.58 15.9545C394.973 16.9848 396.034 18.197 396.761 19.5909C397.504 20.9697 397.875 22.4697 397.875 24.0909V48H386.148V43.0909H385.875C385.178 44.3939 384.33 45.447 383.33 46.25C382.345 47.053 381.216 47.6364 379.943 48C378.686 48.3636 377.299 48.5455 375.784 48.5455ZM379.875 40.6364C380.83 40.6364 381.723 40.4394 382.557 40.0455C383.405 39.6515 384.095 39.0833 384.625 38.3409C385.155 37.5985 385.42 36.697 385.42 35.6364V32.7273C385.087 32.8636 384.731 32.9924 384.352 33.1136C383.989 33.2348 383.595 33.3485 383.17 33.4545C382.761 33.5606 382.322 33.6591 381.852 33.75C381.398 33.8409 380.92 33.9242 380.42 34C379.451 34.1515 378.655 34.4015 378.034 34.75C377.428 35.0833 376.973 35.5 376.67 36C376.383 36.4848 376.239 37.0303 376.239 37.6364C376.239 38.6061 376.58 39.3485 377.261 39.8636C377.943 40.3788 378.814 40.6364 379.875 40.6364Z"/>
<path d="M424.688 13.0909V22.1818H401.688V13.0909H424.688ZM406.142 4.72727H418.688V36.7727C418.688 37.2576 418.771 37.6667 418.938 38C419.104 38.3182 419.362 38.5606 419.71 38.7273C420.059 38.8788 420.506 38.9545 421.051 38.9545C421.43 38.9545 421.869 38.9091 422.369 38.8182C422.884 38.7273 423.263 38.6515 423.506 38.5909L425.324 47.4091C424.763 47.5758 423.96 47.7803 422.915 48.0227C421.884 48.2652 420.657 48.4242 419.233 48.5C416.354 48.6515 413.937 48.3561 411.983 47.6136C410.028 46.8561 408.559 45.6667 407.574 44.0455C406.589 42.4242 406.112 40.3939 406.142 37.9545V21.3409V4.72727Z"/>
<path d="M439.534 48.5455C437.307 48.5455 435.337 48.1818 433.625 47.4545C431.928 46.7121 430.595 45.5909 429.625 44.0909C428.655 42.5909 428.17 40.6818 428.17 38.3636C428.17 36.4545 428.496 34.8258 429.148 33.4773C429.799 32.1136 430.708 31 431.875 30.1364C433.042 29.2727 434.398 28.6136 435.943 28.1591C437.504 27.7045 439.186 27.4091 440.989 27.2727C442.943 27.1212 444.511 26.9394 445.693 26.7273C446.89 26.5 447.754 26.1894 448.284 25.7955C448.814 25.3864 449.08 24.8485 449.08 24.1818V24.0909C449.08 23.1818 448.731 22.4848 448.034 22C447.337 21.5152 446.443 21.2727 445.352 21.2727C444.155 21.2727 443.178 21.5379 442.42 22.0682C441.678 22.5833 441.231 23.3788 441.08 24.4545H429.534C429.686 22.3333 430.36 20.3788 431.557 18.5909C432.769 16.7879 434.534 15.3485 436.852 14.2727C439.17 13.1818 442.064 12.6364 445.534 12.6364C448.034 12.6364 450.277 12.9318 452.261 13.5227C454.246 14.0985 455.936 14.9091 457.33 15.9545C458.723 16.9848 459.784 18.197 460.511 19.5909C461.254 20.9697 461.625 22.4697 461.625 24.0909V48H449.898V43.0909H449.625C448.928 44.3939 448.08 45.447 447.08 46.25C446.095 47.053 444.966 47.6364 443.693 48C442.436 48.3636 441.049 48.5455 439.534 48.5455ZM443.625 40.6364C444.58 40.6364 445.473 40.4394 446.307 40.0455C447.155 39.6515 447.845 39.0833 448.375 38.3409C448.905 37.5985 449.17 36.697 449.17 35.6364V32.7273C448.837 32.8636 448.481 32.9924 448.102 33.1136C447.739 33.2348 447.345 33.3485 446.92 33.4545C446.511 33.5606 446.072 33.6591 445.602 33.75C445.148 33.8409 444.67 33.9242 444.17 34C443.201 34.1515 442.405 34.4015 441.784 34.75C441.178 35.0833 440.723 35.5 440.42 36C440.133 36.4848 439.989 37.0303 439.989 37.6364C439.989 38.6061 440.33 39.3485 441.011 39.8636C441.693 40.3788 442.564 40.6364 443.625 40.6364Z"/>
<path d="M480.165 28.3636V48H467.619V13.0909H479.528V19.7273H479.892C480.65 17.5152 481.983 15.7803 483.892 14.5227C485.816 13.2652 488.059 12.6364 490.619 12.6364C493.089 12.6364 495.233 13.2045 497.051 14.3409C498.884 15.4621 500.301 17.0076 501.301 18.9773C502.316 20.947 502.816 23.197 502.801 25.7273V48H490.256V28.3636C490.271 26.6364 489.831 25.2803 488.938 24.2955C488.059 23.3106 486.831 22.8182 485.256 22.8182C484.225 22.8182 483.324 23.0455 482.551 23.5C481.794 23.9394 481.21 24.5758 480.801 25.4091C480.392 26.2273 480.18 27.2121 480.165 28.3636Z"/>
</mask>
<path d="M1 1.45454V0.454544H0V1.45454H1ZM16.7273 1.45454L17.6524 1.07492L17.3978 0.454544H16.7273V1.45454ZM27.5455 27.8182L26.6203 28.1978L26.8749 28.8182H27.5455V27.8182ZM28.0909 27.8182V28.8182H28.7615L29.016 28.1978L28.0909 27.8182ZM38.9091 1.45454V0.454544H38.2385L37.984 1.07492L38.9091 1.45454ZM54.6364 1.45454H55.6364V0.454544H54.6364V1.45454ZM54.6364 48V49H55.6364V48H54.6364ZM42.2727 48H41.2727V49H42.2727V48ZM42.2727 21.0909H43.2727V20.0909H42.2727V21.0909ZM41.9091 21.0909V20.0909H41.226L40.9776 20.7272L41.9091 21.0909ZM31.5455 47.6364V48.6364H32.2286L32.477 48L31.5455 47.6364ZM24.0909 47.6364L23.1585 47.9979L23.4061 48.6364H24.0909V47.6364ZM13.7273 20.9091L14.6596 20.5476L14.4121 19.9091H13.7273V20.9091ZM13.3636 20.9091V19.9091H12.3636V20.9091H13.3636ZM13.3636 48V49H14.3636V48H13.3636ZM1 48H0V49H1V48ZM66.5795 46.5L66.0479 47.347L66.0507 47.3487L66.5795 46.5ZM61.5795 40.5682L60.674 40.9925L60.676 40.9967L61.5795 40.5682ZM61.6705 20.2727L60.776 19.8255L60.774 19.8296L61.6705 20.2727ZM66.7614 14.4773L66.2552 13.6149L66.2524 13.6165L66.7614 14.4773ZM77.8977 13.5455L77.476 14.4522L77.4847 14.4562L77.8977 13.5455ZM81.1705 15.9318L80.4193 16.5919L80.4243 16.5976L81.1705 15.9318ZM83.1705 19.1818L82.2371 19.5408L82.4837 20.1818H83.1705V19.1818ZM83.3523 19.1818V20.1818H84.3523V19.1818H83.3523ZM83.3523 1.45454V0.454544H82.3523V1.45454H83.3523ZM95.8977 1.45454H96.8977V0.454544H95.8977V1.45454ZM95.8977 48V49H96.8977V48H95.8977ZM83.4432 48H82.4432V49H83.4432V48ZM83.4432 42.2727H84.4432V41.2727H83.4432V42.2727ZM83.1705 42.2727V41.2727H82.4998L82.2453 41.8932L83.1705 42.2727ZM81.0795 45.4545L80.3609 44.7591L80.3608 44.7593L81.0795 45.4545ZM77.8068 47.6591L78.1914 48.5822L78.1968 48.5799L77.8068 47.6591ZM81.0341 37.8182L81.6658 38.5934L81.6673 38.5921L81.0341 37.8182ZM82.9432 34.9545L82.004 34.611L82.0017 34.6175L82.9432 34.9545ZM82.9432 26.1136L82.0004 26.4471L82.0029 26.454L82.0054 26.461L82.9432 26.1136ZM81.0341 23.2727L80.4024 24.048L80.4102 24.0543L80.4182 24.0605L81.0341 23.2727ZM75.125 23.2727L75.755 24.0493L75.7567 24.048L75.125 23.2727ZM73.2614 26.1136L72.3186 25.7802L72.3162 25.7869L73.2614 26.1136ZM73.2614 35L72.315 35.3231L72.3174 35.3301L72.3199 35.3371L73.2614 35ZM75.125 37.8409L74.4862 38.6103L74.4941 38.6168L74.5021 38.6232L75.125 37.8409ZM114.625 48H113.625V49H114.625V48ZM114.625 1.45454V0.454544H113.625V1.45454H114.625ZM148.17 1.45454H149.17V0.454544H148.17V1.45454ZM148.17 11.6364V12.6364H149.17V11.6364H148.17ZM127.261 11.6364V10.6364H126.261V11.6364H127.261ZM127.261 19.6364H126.261V20.6364H127.261V19.6364ZM146.443 19.6364H147.443V18.6364H146.443V19.6364ZM146.443 29.8182V30.8182H147.443V29.8182H146.443ZM127.261 29.8182V28.8182H126.261V29.8182H127.261ZM127.261 37.8182H126.261V38.8182H127.261V37.8182ZM148.08 37.8182H149.08V36.8182H148.08V37.8182ZM148.08 48V49H149.08V48H148.08ZM158.438 47.4545L158.037 48.3708L158.047 48.3749L158.438 47.4545ZM154.438 44.0909L153.598 44.6338L153.598 44.6338L154.438 44.0909ZM153.96 33.4773L154.861 33.9123L154.863 33.9084L153.96 33.4773ZM156.688 30.1364L157.282 30.9401L157.282 30.9401L156.688 30.1364ZM160.756 28.1591L160.476 27.199L160.474 27.1997L160.756 28.1591ZM165.801 27.2727L165.877 28.2699L165.878 28.2697L165.801 27.2727ZM170.506 26.7273L170.682 27.7116L170.692 27.7097L170.506 26.7273ZM173.097 25.7955L173.693 26.5982L173.7 26.5928L173.707 26.5872L173.097 25.7955ZM172.847 22L172.276 22.8209L172.276 22.8209L172.847 22ZM167.233 22.0682L167.803 22.8898L167.806 22.8874L167.233 22.0682ZM165.892 24.4545V25.4545H166.761L166.882 24.594L165.892 24.4545ZM154.347 24.4545L153.349 24.3833L153.273 25.4545H154.347V24.4545ZM156.369 18.5909L155.539 18.033L155.538 18.0346L156.369 18.5909ZM161.665 14.2727L162.086 15.1798L162.091 15.1775L161.665 14.2727ZM177.074 13.5227L176.789 14.4812L176.795 14.4831L177.074 13.5227ZM182.142 15.9545L181.542 16.7546L181.548 16.7587L182.142 15.9545ZM185.324 19.5909L184.437 20.0535L184.443 20.065L185.324 19.5909ZM186.438 48V49H187.438V48H186.438ZM174.71 48H173.71V49H174.71V48ZM174.71 43.0909H175.71V42.0909H174.71V43.0909ZM174.438 43.0909V42.0909H173.838L173.556 42.6193L174.438 43.0909ZM171.892 46.25L171.266 45.4703L171.26 45.475L171.892 46.25ZM168.506 48L168.231 47.0385L168.228 47.0394L168.506 48ZM171.119 40.0455L170.698 39.1384L170.692 39.1414L171.119 40.0455ZM173.188 38.3409L172.374 37.7597L172.374 37.7597L173.188 38.3409ZM173.983 32.7273H174.983V31.2377L173.604 31.8017L173.983 32.7273ZM172.915 33.1136L172.61 32.1611L172.599 32.165L172.915 33.1136ZM171.733 33.4545L171.49 32.4844L171.482 32.4865L171.733 33.4545ZM170.415 33.75L170.225 32.7682L170.219 32.7694L170.415 33.75ZM168.983 34L168.833 33.0113L168.829 33.012L168.983 34ZM166.597 34.75L167.079 35.6262L167.086 35.6221L166.597 34.75ZM165.233 36L164.378 35.4817L164.373 35.4895L165.233 36ZM165.824 39.8636L166.427 39.0658L166.427 39.0658L165.824 39.8636ZM204.977 28.3636L203.977 28.3505V28.3636H204.977ZM204.977 48V49H205.977V48H204.977ZM192.432 48H191.432V49H192.432V48ZM192.432 1.45454V0.454544H191.432V1.45454H192.432ZM204.523 1.45454H205.523V0.454544H204.523V1.45454ZM204.523 19.7273H203.523V20.7273H204.523V19.7273ZM204.886 19.7273V20.7273H205.593L205.829 20.0608L204.886 19.7273ZM208.818 14.5227L209.379 15.3506L209.384 15.3474L208.818 14.5227ZM221.864 14.3182L221.339 15.1694L221.342 15.1713L221.864 14.3182ZM226.114 18.9545L225.222 19.4072L225.225 19.4127L226.114 18.9545ZM227.614 25.7273L226.614 25.7213V25.7273H227.614ZM227.614 48V49H228.614V48H227.614ZM215.068 48H214.068V49H215.068V48ZM215.068 28.3636L214.068 28.3549V28.3636H215.068ZM213.773 24.2955L213.021 24.9548L213.027 24.9612L213.773 24.2955ZM207.386 23.5L207.888 24.365L207.893 24.3619L207.386 23.5ZM205.614 25.4091L204.722 24.9554L204.719 24.9619L205.614 25.4091ZM240.898 46.5L240.425 47.3811L240.431 47.3843L240.898 46.5ZM234.693 40.3182L233.811 40.789L233.814 40.7949L234.693 40.3182ZM234.716 21.1818L235.596 21.6565L235.596 21.6565L234.716 21.1818ZM240.875 14.8864L241.367 15.7567L241.367 15.7567L240.875 14.8864ZM257.42 13.8636L257.778 12.9298L257.778 12.9298L257.42 13.8636ZM262.898 17.4318L262.18 18.1284L262.184 18.1319L262.898 17.4318ZM266.398 23.0682L265.46 23.4151L265.46 23.4151L266.398 23.0682ZM267.625 33.4545L267.627 34.4545L268.625 34.4525V33.4545H267.625ZM244.898 33.5H243.898V34.502L244.9 34.5L244.898 33.5ZM244.898 26.5455L243.898 26.5156L243.898 26.5305V26.5455H244.898ZM256.08 26.5455V27.5455H257.095L257.079 26.5303L256.08 26.5455ZM255.307 23.9091L254.46 24.4406L254.466 24.4503L254.472 24.4599L255.307 23.9091ZM253.33 22.1136L252.856 22.9946L252.866 22.9998L252.876 23.0048L253.33 22.1136ZM247.739 22.1136L248.186 23.0081L248.192 23.0049L248.198 23.0016L247.739 22.1136ZM245.693 23.8864L244.866 23.324L244.859 23.3355L245.693 23.8864ZM245.602 37L244.72 37.4714L244.72 37.4714L245.602 37ZM247.625 39.0682L247.13 39.9373L247.13 39.9373L247.625 39.0682ZM253.17 39.4545L252.854 38.5058L252.848 38.5079L253.17 39.4545ZM255.034 38.4091L255.696 39.1589L255.702 39.1535L255.708 39.148L255.034 38.4091ZM256.17 36.7273V35.7273H255.476L255.233 36.3785L256.17 36.7273ZM267.625 36.7273L268.612 36.8877L268.801 35.7273H267.625V36.7273ZM264.83 43.0455L265.599 43.6837L265.602 43.6805L264.83 43.0455ZM258.989 47.1818L259.362 48.1095L259.365 48.1083L258.989 47.1818ZM276.562 47.4545L276.162 48.3708L276.172 48.3749L276.562 47.4545ZM272.562 44.0909L271.723 44.6338L271.723 44.6338L272.562 44.0909ZM272.085 33.4773L272.986 33.9123L272.988 33.9084L272.085 33.4773ZM274.812 30.1364L275.407 30.9401L275.407 30.9401L274.812 30.1364ZM278.881 28.1591L278.601 27.199L278.599 27.1997L278.881 28.1591ZM283.926 27.2727L284.002 28.2699L284.003 28.2697L283.926 27.2727ZM288.631 26.7273L288.807 27.7116L288.817 27.7097L288.631 26.7273ZM291.222 25.7955L291.818 26.5982L291.825 26.5928L291.832 26.5872L291.222 25.7955ZM290.972 22L290.401 22.8209L290.401 22.8209L290.972 22ZM285.358 22.0682L285.928 22.8898L285.931 22.8874L285.358 22.0682ZM284.017 24.4545V25.4545H284.886L285.007 24.594L284.017 24.4545ZM272.472 24.4545L271.474 24.3833L271.398 25.4545H272.472V24.4545ZM274.494 18.5909L273.664 18.033L273.663 18.0346L274.494 18.5909ZM279.79 14.2727L280.211 15.1798L280.216 15.1775L279.79 14.2727ZM295.199 13.5227L294.914 14.4812L294.92 14.4831L295.199 13.5227ZM300.267 15.9545L299.667 16.7546L299.673 16.7587L300.267 15.9545ZM303.449 19.5909L302.562 20.0535L302.568 20.065L303.449 19.5909ZM304.562 48V49H305.562V48H304.562ZM292.835 48H291.835V49H292.835V48ZM292.835 43.0909H293.835V42.0909H292.835V43.0909ZM292.562 43.0909V42.0909H291.963L291.681 42.6193L292.562 43.0909ZM290.017 46.25L289.391 45.4703L289.385 45.475L290.017 46.25ZM286.631 48L286.356 47.0385L286.353 47.0394L286.631 48ZM289.244 40.0455L288.823 39.1384L288.817 39.1414L289.244 40.0455ZM291.312 38.3409L290.499 37.7597L290.499 37.7597L291.312 38.3409ZM292.108 32.7273H293.108V31.2377L291.729 31.8017L292.108 32.7273ZM291.04 33.1136L290.735 32.1611L290.724 32.165L291.04 33.1136ZM289.858 33.4545L289.615 32.4844L289.607 32.4865L289.858 33.4545ZM288.54 33.75L288.35 32.7682L288.344 32.7694L288.54 33.75ZM287.108 34L286.958 33.0113L286.954 33.012L287.108 34ZM284.722 34.75L285.204 35.6262L285.211 35.6221L284.722 34.75ZM283.358 36L282.503 35.4817L282.498 35.4895L283.358 36ZM283.949 39.8636L284.552 39.0658L284.552 39.0658L283.949 39.8636ZM323.125 48H322.125V49H323.125V48ZM323.125 1.45454V0.454544H322.125V1.45454H323.125ZM358.33 8.77273L359.184 8.25261L359.184 8.25261L358.33 8.77273ZM358.261 25.7045L357.423 25.1601L357.42 25.1641L358.261 25.7045ZM335.761 32.6364H334.761V33.6364H335.761V32.6364ZM335.761 22.8182V21.8182H334.761V22.8182H335.761ZM344.011 22.2727L344.34 23.2173L344.348 23.2145L344.011 22.2727ZM346.443 20.4773L345.625 19.9017L345.618 19.912L346.443 20.4773ZM346.443 14.0227L345.609 14.574L345.615 14.5826L345.62 14.5912L346.443 14.0227ZM344.011 12.1591L343.647 13.0903L343.655 13.0935L343.663 13.0965L344.011 12.1591ZM335.761 11.5455V10.5455H334.761V11.5455H335.761ZM335.761 48V49H336.761V48H335.761ZM362.034 48V49H363.775L362.898 47.4963L362.034 48ZM348.307 48L347.413 48.4487L347.69 49H348.307V48ZM340.593 32.6364V31.6364H338.971L339.699 33.0851L340.593 32.6364ZM369.875 47.4545L369.474 48.3708L369.484 48.3749L369.875 47.4545ZM365.875 44.0909L365.035 44.6338L365.035 44.6338L365.875 44.0909ZM365.398 33.4773L366.298 33.9123L366.3 33.9084L365.398 33.4773ZM368.125 30.1364L368.72 30.9401L368.72 30.9401L368.125 30.1364ZM372.193 28.1591L371.914 27.199L371.911 27.1997L372.193 28.1591ZM377.239 27.2727L377.314 28.2699L377.316 28.2697L377.239 27.2727ZM381.943 26.7273L382.12 27.7116L382.13 27.7097L381.943 26.7273ZM384.534 25.7955L385.13 26.5982L385.138 26.5928L385.145 26.5872L384.534 25.7955ZM384.284 22L383.713 22.8209L383.713 22.8209L384.284 22ZM378.67 22.0682L379.241 22.8898L379.244 22.8874L378.67 22.0682ZM377.33 24.4545V25.4545H378.199L378.32 24.594L377.33 24.4545ZM365.784 24.4545L364.787 24.3833L364.71 25.4545H365.784V24.4545ZM367.807 18.5909L366.977 18.033L366.976 18.0346L367.807 18.5909ZM373.102 14.2727L373.523 15.1798L373.528 15.1775L373.102 14.2727ZM388.511 13.5227L388.226 14.4812L388.233 14.4831L388.511 13.5227ZM393.58 15.9545L392.98 16.7546L392.985 16.7587L393.58 15.9545ZM396.761 19.5909L395.875 20.0535L395.881 20.065L396.761 19.5909ZM397.875 48V49H398.875V48H397.875ZM386.148 48H385.148V49H386.148V48ZM386.148 43.0909H387.148V42.0909H386.148V43.0909ZM385.875 43.0909V42.0909H385.276L384.993 42.6193L385.875 43.0909ZM383.33 46.25L382.703 45.4703L382.698 45.475L383.33 46.25ZM379.943 48L379.668 47.0385L379.665 47.0394L379.943 48ZM382.557 40.0455L382.136 39.1384L382.129 39.1414L382.557 40.0455ZM384.625 38.3409L383.811 37.7597L383.811 37.7597L384.625 38.3409ZM385.42 32.7273H386.42V31.2377L385.042 31.8017L385.42 32.7273ZM384.352 33.1136L384.047 32.1611L384.036 32.165L384.352 33.1136ZM383.17 33.4545L382.928 32.4844L382.92 32.4865L383.17 33.4545ZM381.852 33.75L381.662 32.7682L381.656 32.7694L381.852 33.75ZM380.42 34L380.271 33.0113L380.266 33.012L380.42 34ZM378.034 34.75L378.516 35.6262L378.523 35.6221L378.034 34.75ZM376.67 36L375.815 35.4817L375.811 35.4895L376.67 36ZM377.261 39.8636L377.864 39.0658L377.864 39.0658L377.261 39.8636ZM424.688 13.0909H425.688V12.0909H424.688V13.0909ZM424.688 22.1818V23.1818H425.688V22.1818H424.688ZM401.688 22.1818H400.688V23.1818H401.688V22.1818ZM401.688 13.0909V12.0909H400.688V13.0909H401.688ZM406.142 4.72727V3.72727H405.142V4.72727H406.142ZM418.688 4.72727H419.688V3.72727H418.688V4.72727ZM418.938 38L418.043 38.4472L418.047 38.4557L418.052 38.464L418.938 38ZM419.71 38.7273L419.279 39.6294L419.295 39.6372L419.312 39.6443L419.71 38.7273ZM422.369 38.8182L422.196 37.8334L422.19 37.8343L422.369 38.8182ZM423.506 38.5909L424.485 38.389L424.275 37.3679L423.263 37.6208L423.506 38.5909ZM425.324 47.4091L425.609 48.3676L426.489 48.1061L426.303 47.2072L425.324 47.4091ZM422.915 48.0227L422.689 47.0486L422.686 47.0493L422.915 48.0227ZM419.233 48.5L419.286 49.4986L419.286 49.4986L419.233 48.5ZM411.983 47.6136L411.622 48.5461L411.628 48.5485L411.983 47.6136ZM407.574 44.0455L406.719 44.5646L406.719 44.5646L407.574 44.0455ZM406.142 37.9545L407.142 37.967V37.9545H406.142ZM433.625 47.4545L433.224 48.3708L433.234 48.3749L433.625 47.4545ZM429.625 44.0909L428.785 44.6338L428.785 44.6338L429.625 44.0909ZM429.148 33.4773L430.048 33.9123L430.05 33.9084L429.148 33.4773ZM431.875 30.1364L432.47 30.9401L432.47 30.9401L431.875 30.1364ZM435.943 28.1591L435.664 27.199L435.661 27.1997L435.943 28.1591ZM440.989 27.2727L441.064 28.2699L441.066 28.2697L440.989 27.2727ZM445.693 26.7273L445.87 27.7116L445.88 27.7097L445.693 26.7273ZM448.284 25.7955L448.88 26.5982L448.888 26.5928L448.895 26.5872L448.284 25.7955ZM448.034 22L447.463 22.8209L447.463 22.8209L448.034 22ZM442.42 22.0682L442.991 22.8898L442.994 22.8874L442.42 22.0682ZM441.08 24.4545V25.4545H441.949L442.07 24.594L441.08 24.4545ZM429.534 24.4545L428.537 24.3833L428.46 25.4545H429.534V24.4545ZM431.557 18.5909L430.727 18.033L430.726 18.0346L431.557 18.5909ZM436.852 14.2727L437.273 15.1798L437.278 15.1775L436.852 14.2727ZM452.261 13.5227L451.976 14.4812L451.983 14.4831L452.261 13.5227ZM457.33 15.9545L456.73 16.7546L456.735 16.7587L457.33 15.9545ZM460.511 19.5909L459.625 20.0535L459.631 20.065L460.511 19.5909ZM461.625 48V49H462.625V48H461.625ZM449.898 48H448.898V49H449.898V48ZM449.898 43.0909H450.898V42.0909H449.898V43.0909ZM449.625 43.0909V42.0909H449.026L448.743 42.6193L449.625 43.0909ZM447.08 46.25L446.453 45.4703L446.448 45.475L447.08 46.25ZM443.693 48L443.418 47.0385L443.415 47.0394L443.693 48ZM446.307 40.0455L445.886 39.1384L445.879 39.1414L446.307 40.0455ZM448.375 38.3409L447.561 37.7597L447.561 37.7597L448.375 38.3409ZM449.17 32.7273H450.17V31.2377L448.792 31.8017L449.17 32.7273ZM448.102 33.1136L447.797 32.1611L447.786 32.165L448.102 33.1136ZM446.92 33.4545L446.678 32.4844L446.67 32.4865L446.92 33.4545ZM445.602 33.75L445.412 32.7682L445.406 32.7694L445.602 33.75ZM444.17 34L444.021 33.0113L444.016 33.012L444.17 34ZM441.784 34.75L442.266 35.6262L442.273 35.6221L441.784 34.75ZM440.42 36L439.565 35.4817L439.561 35.4895L440.42 36ZM441.011 39.8636L441.614 39.0658L441.614 39.0658L441.011 39.8636ZM480.165 28.3636L479.165 28.3505V28.3636H480.165ZM480.165 48V49H481.165V48H480.165ZM467.619 48H466.619V49H467.619V48ZM467.619 13.0909V12.0909H466.619V13.0909H467.619ZM479.528 13.0909H480.528V12.0909H479.528V13.0909ZM479.528 19.7273H478.528V20.7273H479.528V19.7273ZM479.892 19.7273V20.7273H480.607L480.838 20.0513L479.892 19.7273ZM483.892 14.5227L483.345 13.6856L483.342 13.6876L483.892 14.5227ZM497.051 14.3409L496.521 15.1889L496.529 15.194L497.051 14.3409ZM501.301 18.9773L500.409 19.43L500.412 19.4354L501.301 18.9773ZM502.801 25.7273L501.801 25.7213V25.7273H502.801ZM502.801 48V49H503.801V48H502.801ZM490.256 48H489.256V49H490.256V48ZM490.256 28.3636L489.256 28.3549V28.3636H490.256ZM488.938 24.2955L488.191 24.9613L488.197 24.9676L488.938 24.2955ZM482.551 23.5L483.053 24.365L483.058 24.3619L482.551 23.5ZM480.801 25.4091L481.696 25.8563L481.699 25.8498L480.801 25.4091ZM342.475 32.6364V33.6364H342.483L342.491 33.6362L342.475 32.6364ZM345.5 32.5L345.574 33.4972L345.62 33.4939L345.664 33.4864L345.5 32.5ZM348.5 32L348.664 32.9864L348.704 32.9798L348.743 32.9701L348.5 32ZM344 32.6119L344.016 33.6118L344.045 33.6113L344.074 33.6091L344 32.6119ZM350.5 31.5L350.743 32.4701L350.806 32.4543L350.867 32.4303L350.5 31.5ZM1 2.45454H16.7273V0.454544H1V2.45454ZM15.8021 1.83417L26.6203 28.1978L28.4706 27.4386L17.6524 1.07492L15.8021 1.83417ZM27.5455 28.8182H28.0909V26.8182H27.5455V28.8182ZM29.016 28.1978L39.8342 1.83417L37.984 1.07492L27.1658 27.4386L29.016 28.1978ZM38.9091 2.45454H54.6364V0.454544H38.9091V2.45454ZM53.6364 1.45454V48H55.6364V1.45454H53.6364ZM54.6364 47H42.2727V49H54.6364V47ZM43.2727 48V21.0909H41.2727V48H43.2727ZM42.2727 20.0909H41.9091V22.0909H42.2727V20.0909ZM40.9776 20.7272L30.6139 47.2727L32.477 48L42.8406 21.4546L40.9776 20.7272ZM31.5455 46.6364H24.0909V48.6364H31.5455V46.6364ZM25.0233 47.2748L14.6596 20.5476L12.7949 21.2706L23.1585 47.9979L25.0233 47.2748ZM13.7273 19.9091H13.3636V21.9091H13.7273V19.9091ZM12.3636 20.9091V48H14.3636V20.9091H12.3636ZM13.3636 47H1V49H13.3636V47ZM2 48V1.45454H0V48H2ZM73.4432 47.4545C71.1436 47.4545 69.0392 46.8546 67.1084 45.6513L66.0507 47.3487C68.3017 48.7515 70.7731 49.4545 73.4432 49.4545V47.4545ZM67.1112 45.653C65.2261 44.4697 63.6753 42.6535 62.4831 40.1396L60.676 40.9967C61.9989 43.7859 63.7814 45.9242 66.0479 47.347L67.1112 45.653ZM62.4851 40.1439C61.3237 37.6653 60.7159 34.4811 60.7159 30.5455H58.7159C58.7159 34.6705 59.3506 38.168 60.674 40.9925L62.4851 40.1439ZM60.7159 30.5455C60.7159 26.4252 61.3549 23.168 62.5669 20.7158L60.774 19.8296C59.3799 22.6502 58.7159 26.2415 58.7159 30.5455H60.7159ZM62.5649 20.7199C63.8163 18.2172 65.3937 16.4476 67.2703 15.3381L66.2524 13.6165C63.9776 14.9615 62.161 17.0555 60.776 19.8255L62.5649 20.7199ZM67.2676 15.3397C69.2134 14.1976 71.2367 13.6364 73.3523 13.6364V11.6364C70.8617 11.6364 68.4911 12.3024 66.2552 13.6149L67.2676 15.3397ZM73.3523 13.6364C74.9628 13.6364 76.329 13.9187 77.476 14.4522L78.3195 12.6387C76.8604 11.9601 75.1963 11.6364 73.3523 11.6364V13.6364ZM77.4847 14.4562C78.6683 14.9929 79.641 15.7063 80.4193 16.5919L81.9216 15.2717C80.9423 14.1573 79.7332 13.2798 78.3107 12.6347L77.4847 14.4562ZM80.4243 16.5976C81.2261 17.4962 81.8278 18.4765 82.2371 19.5408L84.1038 18.8228C83.6041 17.5235 82.8723 16.3371 81.9166 15.266L80.4243 16.5976ZM83.1705 20.1818H83.3523V18.1818H83.1705V20.1818ZM84.3523 19.1818V1.45454H82.3523V19.1818H84.3523ZM83.3523 2.45454H95.8977V0.454544H83.3523V2.45454ZM94.8977 1.45454V48H96.8977V1.45454H94.8977ZM95.8977 47H83.4432V49H95.8977V47ZM84.4432 48V42.2727H82.4432V48H84.4432ZM83.4432 41.2727H83.1705V43.2727H83.4432V41.2727ZM82.2453 41.8932C81.8098 42.9548 81.1839 43.9088 80.3609 44.7591L81.7981 46.15C82.7934 45.1215 83.5615 43.9543 84.0956 42.6523L82.2453 41.8932ZM80.3608 44.7593C79.5681 45.5789 78.592 46.2406 77.4168 46.7383L78.1968 48.5799C79.5974 47.9867 80.8031 47.1787 81.7983 46.1498L80.3608 44.7593ZM77.4222 46.736C76.2919 47.207 74.9717 47.4545 73.4432 47.4545V49.4545C75.1874 49.4545 76.7763 49.1718 78.1914 48.5822L77.4222 46.736ZM78.0795 39.8182C79.4388 39.8182 80.6525 39.419 81.6658 38.5934L80.4024 37.0429C79.7793 37.5507 79.0233 37.8182 78.0795 37.8182V39.8182ZM81.6673 38.5921C82.6681 37.7733 83.397 36.6537 83.8847 35.2916L82.0017 34.6175C81.6106 35.7099 81.0667 36.4994 80.4009 37.0442L81.6673 38.5921ZM83.8823 35.2981C84.3867 33.9195 84.625 32.3281 84.625 30.5455H82.625C82.625 32.1568 82.4088 33.5048 82.0041 34.611L83.8823 35.2981ZM84.625 30.5455C84.625 28.7354 84.3875 27.134 83.8809 25.7663L82.0054 26.461C82.408 27.5478 82.625 28.901 82.625 30.5455H84.625ZM83.886 25.7802C83.3987 24.4023 82.6663 23.2795 81.65 22.4849L80.4182 24.0605C81.0685 24.569 81.6089 25.3401 82.0004 26.4471L83.886 25.7802ZM81.6658 22.4975C80.6525 21.6719 79.4388 21.2727 78.0795 21.2727V23.2727C79.0233 23.2727 79.7793 23.5402 80.4024 24.048L81.6658 22.4975ZM78.0795 21.2727C76.7203 21.2727 75.5066 21.6719 74.4933 22.4975L75.7567 24.048C76.3798 23.5402 77.1358 23.2727 78.0795 23.2727V21.2727ZM74.495 22.4962C73.5145 23.2916 72.8028 24.4111 72.3186 25.7802L74.2041 26.4471C74.5987 25.3313 75.1294 24.5569 75.755 24.0493L74.495 22.4962ZM72.3162 25.7869C71.8459 27.1475 71.625 28.7414 71.625 30.5455H73.625C73.625 28.8949 73.8283 27.5343 74.2065 26.4403L72.3162 25.7869ZM71.625 30.5455C71.625 32.35 71.846 33.9497 72.315 35.3231L74.2077 34.6769C73.8282 33.5654 73.625 32.1955 73.625 30.5455H71.625ZM72.3199 35.3371C72.8048 36.6914 73.515 37.804 74.4862 38.6103L75.7638 37.0715C75.1289 36.5445 74.5968 35.7632 74.2028 34.6629L72.3199 35.3371ZM74.5021 38.6232C75.5154 39.4301 76.726 39.8182 78.0795 39.8182V37.8182C77.13 37.8182 76.371 37.5548 75.7479 37.0586L74.5021 38.6232ZM115.625 48V1.45454H113.625V48H115.625ZM114.625 2.45454H148.17V0.454544H114.625V2.45454ZM147.17 1.45454V11.6364H149.17V1.45454H147.17ZM148.17 10.6364H127.261V12.6364H148.17V10.6364ZM126.261 11.6364V19.6364H128.261V11.6364H126.261ZM127.261 20.6364H146.443V18.6364H127.261V20.6364ZM145.443 19.6364V29.8182H147.443V19.6364H145.443ZM146.443 28.8182H127.261V30.8182H146.443V28.8182ZM126.261 29.8182V37.8182H128.261V29.8182H126.261ZM127.261 38.8182H148.08V36.8182H127.261V38.8182ZM147.08 37.8182V48H149.08V37.8182H147.08ZM148.08 47H114.625V49H148.08V47ZM164.347 47.5455C162.228 47.5455 160.395 47.1996 158.828 46.5341L158.047 48.3749C159.904 49.164 162.011 49.5455 164.347 49.5455V47.5455ZM158.838 46.5384C157.314 45.8715 156.136 44.8769 155.277 43.548L153.598 44.6338C154.678 46.3049 156.167 47.5527 158.037 48.3707L158.838 46.5384ZM155.277 43.548C154.439 42.2515 153.983 40.5458 153.983 38.3636H151.983C151.983 40.8179 152.496 42.9303 153.598 44.6338L155.277 43.548ZM153.983 38.3636C153.983 36.5651 154.29 35.0931 154.861 33.9123L153.06 33.0422C152.327 34.5584 151.983 36.344 151.983 38.3636H153.983ZM154.863 33.9084C155.447 32.6859 156.253 31.7024 157.282 30.9401L156.093 29.3326C154.789 30.2976 153.777 31.5414 153.058 33.0462L154.863 33.9084ZM157.282 30.9401C158.345 30.1535 159.593 29.5435 161.038 29.1185L160.474 27.1997C158.828 27.6838 157.363 28.3919 156.093 29.3326L157.282 30.9401ZM161.035 29.1192C162.522 28.6861 164.135 28.4016 165.877 28.2699L165.726 26.2756C163.861 26.4166 162.11 26.723 160.476 27.199L161.035 29.1192ZM165.878 28.2697C167.848 28.117 169.454 27.9321 170.682 27.7115L170.329 25.743C169.194 25.9467 167.663 26.1254 165.724 26.2757L165.878 28.2697ZM170.692 27.7097C171.933 27.4742 172.978 27.1295 173.693 26.5982L172.5 24.9927C172.155 25.2493 171.473 25.5258 170.319 25.7448L170.692 27.7097ZM173.707 26.5872C174.482 25.9898 174.892 25.1602 174.892 24.1818H172.892C172.892 24.5368 172.772 24.7829 172.486 25.0037L173.707 26.5872ZM174.892 24.1818V24.0909H172.892V24.1818H174.892ZM174.892 24.0909C174.892 22.8818 174.405 21.8659 173.418 21.1791L172.276 22.8209C172.682 23.1037 172.892 23.4819 172.892 24.0909H174.892ZM173.418 21.1791C172.511 20.5484 171.402 20.2727 170.165 20.2727V22.2727C171.11 22.2727 171.788 22.4819 172.276 22.8209L173.418 21.1791ZM170.165 20.2727C168.823 20.2727 167.628 20.5707 166.659 21.249L167.806 22.8874C168.353 22.5051 169.113 22.2727 170.165 22.2727V20.2727ZM166.663 21.2466C165.646 21.9524 165.084 23.0238 164.902 24.3151L166.882 24.594C167.003 23.7338 167.335 23.2143 167.803 22.8898L166.663 21.2466ZM165.892 23.4545H154.347V25.4545H165.892V23.4545ZM155.344 24.5258C155.483 22.5801 156.099 20.7924 157.2 19.1472L155.538 18.0346C154.246 19.9652 153.513 22.0865 153.349 24.3833L155.344 24.5258ZM157.199 19.1488C158.293 17.5223 159.904 16.1924 162.086 15.1798L161.244 13.3656C158.79 14.5046 156.87 16.0535 155.539 18.033L157.199 19.1488ZM162.091 15.1775C164.237 14.1674 166.975 13.6364 170.347 13.6364V11.6364C166.779 11.6364 163.729 12.1962 161.239 13.3679L162.091 15.1775ZM170.347 13.6364C172.769 13.6364 174.913 13.9228 176.789 14.4812L177.359 12.5643C175.265 11.9408 172.924 11.6364 170.347 11.6364V13.6364ZM176.795 14.4831C178.685 15.0314 180.261 15.7936 181.542 16.7545L182.742 15.1545C181.235 14.0246 179.432 13.1656 177.352 12.5623L176.795 14.4831ZM181.548 16.7587C182.832 17.7082 183.787 18.8074 184.437 20.0535L186.21 19.1283C185.406 17.5865 184.24 16.2615 182.736 15.1504L181.548 16.7587ZM184.443 20.065C185.105 21.2928 185.438 22.6291 185.438 24.0909H187.438C187.438 22.3103 187.028 20.6466 186.204 19.1168L184.443 20.065ZM185.438 24.0909V48H187.438V24.0909H185.438ZM186.438 47H174.71V49H186.438V47ZM175.71 48V43.0909H173.71V48H175.71ZM174.71 42.0909H174.438V44.0909H174.71V42.0909ZM173.556 42.6193C172.913 43.8214 172.146 44.7635 171.266 45.4703L172.518 47.0297C173.638 46.1304 174.568 44.9665 175.319 43.5626L173.556 42.6193ZM171.26 45.475C170.385 46.1887 169.379 46.7105 168.231 47.0385L168.78 48.9615C170.178 48.5622 171.43 47.9174 172.524 47.025L171.26 45.475ZM168.228 47.0394C167.073 47.3732 165.782 47.5455 164.347 47.5455V49.5455C165.941 49.5455 167.423 49.3541 168.783 48.9606L168.228 47.0394ZM168.438 41.6364C169.534 41.6364 170.575 41.4089 171.547 40.9495L170.692 39.1414C169.997 39.4699 169.25 39.6364 168.438 39.6364V41.6364ZM171.54 40.9525C172.542 40.4876 173.368 39.809 174.001 38.9221L172.374 37.7597C171.947 38.3577 171.394 38.8154 170.698 39.1384L171.54 40.9525ZM174.001 38.9221C174.672 37.9837 174.983 36.8704 174.983 35.6364H172.983C172.983 36.5235 172.764 37.2132 172.374 37.7597L174.001 38.9221ZM174.983 35.6364V32.7273H172.983V35.6364H174.983ZM173.604 31.8017C173.298 31.9272 172.966 32.0472 172.61 32.1612L173.22 34.0661C173.621 33.9377 174.002 33.8001 174.362 33.6528L173.604 31.8017ZM172.599 32.165C172.262 32.277 171.893 32.3837 171.49 32.4844L171.975 34.4247C172.421 34.3133 172.84 34.1927 173.231 34.0623L172.599 32.165ZM171.482 32.4865C171.095 32.5868 170.677 32.6808 170.225 32.7682L170.605 34.7318C171.092 34.6374 171.552 34.5345 171.984 34.4225L171.482 32.4865ZM170.219 32.7694C169.781 32.857 169.319 32.9377 168.833 33.0113L169.133 34.9887C169.647 34.9108 170.14 34.8248 170.611 34.7306L170.219 32.7694ZM168.829 33.012C167.783 33.1754 166.863 33.4537 166.107 33.8779L167.086 35.6221C167.572 35.3494 168.244 35.1276 169.137 34.988L168.829 33.012ZM166.115 33.8738C165.383 34.2761 164.787 34.8064 164.378 35.4817L166.088 36.5183C166.285 36.1936 166.598 35.8906 167.079 35.6262L166.115 33.8738ZM164.373 35.4895C163.987 36.1404 163.801 36.8645 163.801 37.6364H165.801C165.801 37.1961 165.904 36.8293 166.093 36.5105L164.373 35.4895ZM163.801 37.6364C163.801 38.8713 164.253 39.9301 165.221 40.6615L166.427 39.0658C166.031 38.7669 165.801 38.3408 165.801 37.6364H163.801ZM165.221 40.6615C166.115 41.3367 167.213 41.6364 168.438 41.6364V39.6364C167.541 39.6364 166.897 39.4208 166.427 39.0658L165.221 40.6615ZM203.977 28.3636V48H205.977V28.3636H203.977ZM204.977 47H192.432V49H204.977V47ZM193.432 48V1.45454H191.432V48H193.432ZM192.432 2.45454H204.523V0.454544H192.432V2.45454ZM203.523 1.45454V19.7273H205.523V1.45454H203.523ZM204.523 20.7273H204.886V18.7273H204.523V20.7273ZM205.829 20.0608C206.551 18.0205 207.735 16.4649 209.379 15.3505L208.257 13.6949C206.235 15.0654 204.798 16.9795 203.944 19.3938L205.829 20.0608ZM209.384 15.3474C211.025 14.2213 213.025 13.6364 215.432 13.6364V11.6364C212.687 11.6364 210.278 12.309 208.253 13.6981L209.384 15.3474ZM215.432 13.6364C217.746 13.6364 219.702 14.1598 221.339 15.1694L222.389 13.467C220.389 12.2341 218.057 11.6364 215.432 11.6364V13.6364ZM221.342 15.1713C223.013 16.1931 224.303 17.5978 225.222 19.4072L227.005 18.5019C225.924 16.3719 224.381 14.6857 222.385 13.4651L221.342 15.1713ZM225.225 19.4127C226.156 21.2189 226.628 23.3131 226.614 25.7213L228.614 25.7332C228.63 23.0505 228.102 20.6296 227.003 18.4964L225.225 19.4127ZM226.614 25.7273V48H228.614V25.7273H226.614ZM227.614 47H215.068V49H227.614V47ZM216.068 48V28.3636H214.068V48H216.068ZM216.068 28.3724C216.085 26.4752 215.609 24.8513 214.519 23.6297L213.027 24.9612C213.694 25.7093 214.082 26.7975 214.068 28.3549L216.068 28.3724ZM214.525 23.6361C213.429 22.3867 211.892 21.8182 210.068 21.8182V23.8182C211.457 23.8182 212.389 24.2345 213.021 24.9548L214.525 23.6361ZM210.068 21.8182C208.899 21.8182 207.825 22.0817 206.879 22.6381L207.893 24.3619C208.493 24.0093 209.207 23.8182 210.068 23.8182V21.8182ZM206.885 22.635C205.949 23.1777 205.228 23.9625 204.722 24.9554L206.505 25.8628C206.848 25.189 207.309 24.7011 207.888 24.365L206.885 22.635ZM204.719 24.9619C204.228 25.9452 203.994 27.0862 203.977 28.3505L205.977 28.3768C205.991 27.3381 206.182 26.5093 206.508 25.8563L204.719 24.9619ZM250.534 47.6364C246.934 47.6364 243.889 46.9489 241.365 45.6157L240.431 47.3843C243.3 48.8996 246.68 49.6364 250.534 49.6364V47.6364ZM241.371 45.6189C238.861 44.272 236.934 42.3521 235.572 39.8414L233.814 40.7949C235.361 43.6478 237.571 45.8492 240.425 47.3811L241.371 45.6189ZM235.575 39.8473C234.229 37.3248 233.534 34.2668 233.534 30.6364H231.534C231.534 34.521 232.278 37.9176 233.811 40.789L235.575 39.8473ZM233.534 30.6364C233.534 27.1667 234.233 24.1838 235.596 21.6565L233.836 20.7071C232.29 23.5738 231.534 26.8939 231.534 30.6364H233.534ZM235.596 21.6565C236.962 19.1243 238.881 17.1634 241.367 15.7567L240.383 14.016C237.566 15.6093 235.379 17.8454 233.836 20.7071L235.596 21.6565ZM241.367 15.7567C243.843 14.3561 246.796 13.6364 250.261 13.6364V11.6364C246.515 11.6364 243.21 12.4166 240.383 14.016L241.367 15.7567ZM250.261 13.6364C252.794 13.6364 255.057 14.0292 257.063 14.7975L257.778 12.9298C255.512 12.0617 253.002 11.6364 250.261 11.6364V13.6364ZM257.063 14.7975C259.071 15.5664 260.772 16.6775 262.18 18.1284L263.615 16.7352C261.994 15.0649 260.043 13.7972 257.778 12.9298L257.063 14.7975ZM262.184 18.1319C263.592 19.568 264.686 21.3231 265.46 23.4151L267.336 22.7213C266.473 20.389 265.234 18.3866 263.612 16.7317L262.184 18.1319ZM265.46 23.4151C266.23 25.4985 266.625 27.8708 266.625 30.5455H268.625C268.625 27.6747 268.201 25.0621 267.336 22.7213L265.46 23.4151ZM266.625 30.5455V33.4545H268.625V30.5455H266.625ZM267.623 32.4545L244.896 32.5L244.9 34.5L267.627 34.4545L267.623 32.4545ZM245.898 33.5V26.5455H243.898V33.5H245.898ZM244.898 27.5455H256.08V25.5455H244.898V27.5455ZM257.079 26.5303C257.062 25.3597 256.757 24.291 256.141 23.3582L254.472 24.4599C254.857 25.0424 255.067 25.7312 255.08 26.5606L257.079 26.5303ZM256.154 23.3776C255.57 22.4476 254.774 21.7266 253.783 21.2225L252.876 23.0048C253.552 23.3491 254.074 23.8251 254.46 24.4406L256.154 23.3776ZM253.803 21.2326C252.822 20.7057 251.724 20.4545 250.534 20.4545V22.4545C251.435 22.4545 252.201 22.6427 252.856 22.9946L253.803 21.2326ZM250.534 20.4545C249.369 20.4545 248.278 20.7081 247.279 21.2256L248.198 23.0016C248.896 22.6404 249.669 22.4545 250.534 22.4545V20.4545ZM247.291 21.2192C246.296 21.7171 245.481 22.42 244.866 23.324L246.52 24.4487C246.936 23.8376 247.485 23.3587 248.186 23.0081L247.291 21.2192ZM244.859 23.3355C244.244 24.266 243.933 25.3376 243.898 26.5156L245.897 26.5753C245.923 25.723 246.142 25.0219 246.528 24.4372L244.859 23.3355ZM243.898 26.5455V34H245.898V26.5455H243.898ZM243.898 34C243.898 35.2648 244.164 36.4302 244.72 37.4714L246.484 36.5286C246.101 35.8122 245.898 34.9777 245.898 34H243.898ZM244.72 37.4714C245.28 38.5192 246.09 39.3454 247.13 39.9373L248.12 38.199C247.402 37.7909 246.864 37.2383 246.484 36.5286L244.72 37.4714ZM247.13 39.9373C248.191 40.5407 249.43 40.8182 250.807 40.8182V38.8182C249.698 38.8182 248.817 38.5957 248.12 38.199L247.13 39.9373ZM250.807 40.8182C251.764 40.8182 252.663 40.6837 253.493 40.4012L252.848 38.5079C252.254 38.7102 251.577 38.8182 250.807 38.8182V40.8182ZM253.487 40.4032C254.326 40.1233 255.069 39.712 255.696 39.1589L254.372 37.6593C253.969 38.0153 253.469 38.301 252.854 38.5059L253.487 40.4032ZM255.708 39.148C256.34 38.5714 256.81 37.8772 257.108 37.076L255.233 36.3785C255.047 36.8804 254.758 37.3074 254.36 37.6701L255.708 39.148ZM256.17 37.7273H267.625V35.7273H256.17V37.7273ZM266.638 36.5669C266.271 38.8278 265.408 40.7675 264.057 42.4104L265.602 43.6805C267.191 41.7477 268.192 39.4752 268.612 36.8877L266.638 36.5669ZM264.06 42.4072C262.709 44.0364 260.905 45.3241 258.612 46.2554L259.365 48.1083C261.921 47.0699 264.011 45.5999 265.599 43.6837L264.06 42.4072ZM258.615 46.2542C256.35 47.166 253.663 47.6364 250.534 47.6364V49.6364C253.859 49.6364 256.809 49.137 259.362 48.1095L258.615 46.2542ZM282.472 47.5455C280.353 47.5455 278.52 47.1996 276.953 46.5341L276.172 48.3749C278.029 49.164 280.136 49.5455 282.472 49.5455V47.5455ZM276.963 46.5384C275.439 45.8715 274.261 44.8769 273.402 43.548L271.723 44.6338C272.803 46.3049 274.292 47.5527 276.162 48.3707L276.963 46.5384ZM273.402 43.548C272.564 42.2515 272.108 40.5458 272.108 38.3636H270.108C270.108 40.8179 270.621 42.9303 271.723 44.6338L273.402 43.548ZM272.108 38.3636C272.108 36.5651 272.415 35.0932 272.986 33.9123L271.185 33.0422C270.452 34.5584 270.108 36.344 270.108 38.3636H272.108ZM272.988 33.9084C273.572 32.6859 274.378 31.7024 275.407 30.9401L274.218 29.3326C272.914 30.2976 271.902 31.5414 271.183 33.0462L272.988 33.9084ZM275.407 30.9401C276.47 30.1535 277.718 29.5435 279.163 29.1185L278.599 27.1997C276.953 27.6838 275.488 28.3919 274.218 29.3326L275.407 30.9401ZM279.16 29.1192C280.647 28.6861 282.26 28.4016 284.002 28.2699L283.851 26.2756C281.986 26.4166 280.235 26.723 278.601 27.199L279.16 29.1192ZM284.003 28.2697C285.973 28.117 287.579 27.9321 288.807 27.7115L288.454 25.743C287.319 25.9467 285.788 26.1254 283.849 26.2757L284.003 28.2697ZM288.817 27.7097C290.058 27.4742 291.103 27.1295 291.818 26.5982L290.625 24.9927C290.28 25.2493 289.598 25.5258 288.444 25.7448L288.817 27.7097ZM291.832 26.5872C292.607 25.9899 293.017 25.1602 293.017 24.1818H291.017C291.017 24.5368 290.897 24.7829 290.611 25.0037L291.832 26.5872ZM293.017 24.1818V24.0909H291.017V24.1818H293.017ZM293.017 24.0909C293.017 22.8818 292.53 21.8659 291.543 21.1791L290.401 22.8209C290.807 23.1038 291.017 23.4819 291.017 24.0909H293.017ZM291.543 21.1791C290.636 20.5484 289.527 20.2727 288.29 20.2727V22.2727C289.235 22.2727 289.913 22.4819 290.401 22.8209L291.543 21.1791ZM288.29 20.2727C286.948 20.2727 285.753 20.5707 284.784 21.249L285.931 22.8874C286.478 22.5051 287.238 22.2727 288.29 22.2727V20.2727ZM284.788 21.2466C283.771 21.9524 283.209 23.0238 283.027 24.3151L285.007 24.594C285.128 23.7338 285.46 23.2143 285.928 22.8898L284.788 21.2466ZM284.017 23.4545H272.472V25.4545H284.017V23.4545ZM273.469 24.5258C273.608 22.5801 274.224 20.7924 275.325 19.1472L273.663 18.0346C272.371 19.9652 271.638 22.0865 271.474 24.3833L273.469 24.5258ZM275.324 19.1488C276.418 17.5223 278.029 16.1924 280.211 15.1798L279.369 13.3656C276.915 14.5046 274.995 16.0535 273.664 18.033L275.324 19.1488ZM280.216 15.1775C282.362 14.1674 285.1 13.6364 288.472 13.6364V11.6364C284.904 11.6364 281.854 12.1962 279.364 13.3679L280.216 15.1775ZM288.472 13.6364C290.894 13.6364 293.038 13.9228 294.914 14.4812L295.484 12.5643C293.39 11.9408 291.049 11.6364 288.472 11.6364V13.6364ZM294.92 14.4831C296.81 15.0314 298.386 15.7936 299.667 16.7545L300.867 15.1545C299.36 14.0246 297.557 13.1656 295.477 12.5623L294.92 14.4831ZM299.673 16.7587C300.957 17.7082 301.912 18.8074 302.562 20.0535L304.335 19.1283C303.531 17.5865 302.365 16.2615 300.861 15.1504L299.673 16.7587ZM302.568 20.065C303.23 21.2928 303.562 22.6291 303.562 24.0909H305.562C305.562 22.3103 305.153 20.6465 304.329 19.1168L302.568 20.065ZM303.562 24.0909V48H305.562V24.0909H303.562ZM304.562 47H292.835V49H304.562V47ZM293.835 48V43.0909H291.835V48H293.835ZM292.835 42.0909H292.562V44.0909H292.835V42.0909ZM291.681 42.6193C291.038 43.8214 290.271 44.7635 289.391 45.4703L290.643 47.0297C291.763 46.1304 292.693 44.9665 293.444 43.5626L291.681 42.6193ZM289.385 45.475C288.51 46.1887 287.504 46.7105 286.356 47.0385L286.905 48.9615C288.303 48.5622 289.555 47.9174 290.649 47.025L289.385 45.475ZM286.353 47.0394C285.198 47.3732 283.907 47.5455 282.472 47.5455V49.5455C284.066 49.5455 285.548 49.3541 286.908 48.9606L286.353 47.0394ZM286.562 41.6364C287.659 41.6364 288.7 41.4089 289.672 40.9495L288.817 39.1414C288.122 39.4699 287.375 39.6364 286.562 39.6364V41.6364ZM289.665 40.9525C290.667 40.4876 291.493 39.809 292.126 38.9221L290.499 37.7597C290.072 38.3577 289.519 38.8154 288.823 39.1384L289.665 40.9525ZM292.126 38.9221C292.797 37.9837 293.108 36.8704 293.108 35.6364H291.108C291.108 36.5235 290.889 37.2132 290.499 37.7597L292.126 38.9221ZM293.108 35.6364V32.7273H291.108V35.6364H293.108ZM291.729 31.8017C291.423 31.9272 291.091 32.0472 290.735 32.1612L291.345 34.0661C291.746 33.9377 292.127 33.8001 292.487 33.6528L291.729 31.8017ZM290.724 32.165C290.387 32.277 290.018 32.3837 289.615 32.4844L290.101 34.4247C290.546 34.3133 290.965 34.1927 291.356 34.0623L290.724 32.165ZM289.607 32.4865C289.221 32.5868 288.802 32.6808 288.35 32.7682L288.73 34.7318C289.217 34.6374 289.677 34.5345 290.109 34.4225L289.607 32.4865ZM288.344 32.7694C287.906 32.857 287.444 32.9377 286.958 33.0113L287.258 34.9887C287.772 34.9108 288.265 34.8248 288.736 34.7306L288.344 32.7694ZM286.954 33.012C285.908 33.1754 284.988 33.4537 284.232 33.8779L285.211 35.6221C285.697 35.3494 286.369 35.1276 287.262 34.988L286.954 33.012ZM284.24 33.8738C283.508 34.2761 282.912 34.8063 282.503 35.4817L284.213 36.5183C284.41 36.1937 284.723 35.8906 285.204 35.6262L284.24 33.8738ZM282.498 35.4895C282.112 36.1404 281.926 36.8646 281.926 37.6364H283.926C283.926 37.196 284.029 36.8293 284.218 36.5105L282.498 35.4895ZM281.926 37.6364C281.926 38.8713 282.378 39.93 283.346 40.6615L284.552 39.0658C284.156 38.7669 283.926 38.3408 283.926 37.6364H281.926ZM283.346 40.6615C284.24 41.3367 285.338 41.6364 286.562 41.6364V39.6364C285.666 39.6364 285.022 39.4208 284.552 39.0658L283.346 40.6615ZM324.125 48V1.45454H322.125V48H324.125ZM323.125 2.45454H343.216V0.454544H323.125V2.45454ZM343.216 2.45454C346.549 2.45454 349.417 3.0609 351.847 4.24053L352.721 2.44128C349.969 1.10576 346.792 0.454544 343.216 0.454544V2.45454ZM351.847 4.24053C354.273 5.41789 356.14 7.10004 357.475 9.29285L359.184 8.25261C357.64 5.71814 355.477 3.77908 352.721 2.44128L351.847 4.24053ZM357.475 9.29285C358.802 11.4718 359.489 14.1174 359.489 17.2727H361.489C361.489 13.822 360.736 10.8009 359.184 8.25261L357.475 9.29285ZM359.489 17.2727C359.489 20.456 358.781 23.0671 357.423 25.1601L359.1 26.2489C360.711 23.7662 361.489 20.7561 361.489 17.2727H359.489ZM357.42 25.1641C356.064 27.2742 354.155 28.8767 351.656 29.9702L352.458 31.8025C355.292 30.5626 357.519 28.7107 359.103 26.245L357.42 25.1641ZM351.654 29.971C349.155 31.0708 346.198 31.6364 342.761 31.6364V33.6364C346.415 33.6364 349.656 33.0352 352.46 31.8017L351.654 29.971ZM342.761 31.6364H335.761V33.6364H342.761V31.6364ZM336.761 32.6364V22.8182H334.761V32.6364H336.761ZM335.761 23.8182H340.216V21.8182H335.761V23.8182ZM340.216 23.8182C341.777 23.8182 343.16 23.6277 344.34 23.2172L343.683 21.3282C342.772 21.645 341.625 21.8182 340.216 21.8182V23.8182ZM344.348 23.2145C345.579 22.7748 346.573 22.0576 347.268 21.0425L345.618 19.912C345.193 20.5333 344.565 21.0131 343.675 21.331L344.348 23.2145ZM347.261 21.0528C347.988 20.0199 348.307 18.7322 348.307 17.2727H346.307C346.307 18.4496 346.05 19.2983 345.625 19.9018L347.261 21.0528ZM348.307 17.2727C348.307 15.7998 347.989 14.5003 347.266 13.4543L345.62 14.5912C346.049 15.2119 346.307 16.079 346.307 17.2727H348.307ZM347.278 13.4715C346.587 12.4261 345.596 11.6808 344.36 11.2217L343.663 13.0965C344.548 13.4253 345.178 13.9224 345.609 14.574L347.278 13.4715ZM344.376 11.2278C343.183 10.7613 341.787 10.5455 340.216 10.5455V12.5455C341.614 12.5455 342.748 12.7387 343.647 13.0903L344.376 11.2278ZM340.216 10.5455H335.761V12.5455H340.216V10.5455ZM334.761 11.5455V48H336.761V11.5455H334.761ZM335.761 47H323.125V49H335.761V47ZM351.193 31.39L361.17 48.5037L362.898 47.4963L352.921 30.3827L351.193 31.39ZM362.034 47H348.307V49H362.034V47ZM349.2 47.5513L341.486 32.1876L339.699 33.0851L347.413 48.4487L349.2 47.5513ZM375.784 47.5455C373.665 47.5455 371.833 47.1996 370.266 46.5341L369.484 48.3749C371.342 49.164 373.448 49.5455 375.784 49.5455V47.5455ZM370.276 46.5384C368.752 45.8715 367.574 44.8769 366.715 43.548L365.035 44.6338C366.116 46.3049 367.604 47.5527 369.474 48.3707L370.276 46.5384ZM366.715 43.548C365.877 42.2515 365.42 40.5458 365.42 38.3636H363.42C363.42 40.8179 363.934 42.9303 365.035 44.6338L366.715 43.548ZM365.42 38.3636C365.42 36.5651 365.728 35.0932 366.298 33.9123L364.497 33.0422C363.765 34.5584 363.42 36.344 363.42 38.3636H365.42ZM366.3 33.9084C366.884 32.6859 367.69 31.7024 368.72 30.9401L367.53 29.3326C366.227 30.2976 365.214 31.5414 364.495 33.0462L366.3 33.9084ZM368.72 30.9401C369.783 30.1535 371.03 29.5435 372.475 29.1185L371.911 27.1997C370.265 27.6838 368.801 28.3919 367.53 29.3326L368.72 30.9401ZM372.473 29.1192C373.96 28.6861 375.573 28.4016 377.314 28.2699L377.163 26.2756C375.299 26.4166 373.548 26.723 371.914 27.199L372.473 29.1192ZM377.316 28.2697C379.286 28.117 380.891 27.9321 382.12 27.7115L381.767 25.743C380.632 25.9467 379.101 26.1254 377.161 26.2757L377.316 28.2697ZM382.13 27.7097C383.37 27.4742 384.415 27.1295 385.13 26.5982L383.938 24.9927C383.592 25.2493 382.91 25.5258 381.757 25.7448L382.13 27.7097ZM385.145 26.5872C385.919 25.9899 386.33 25.1602 386.33 24.1818H384.33C384.33 24.5368 384.209 24.7829 383.923 25.0037L385.145 26.5872ZM386.33 24.1818V24.0909H384.33V24.1818H386.33ZM386.33 24.0909C386.33 22.8818 385.842 21.8659 384.855 21.1791L383.713 22.8209C384.12 23.1038 384.33 23.4819 384.33 24.0909H386.33ZM384.855 21.1791C383.949 20.5484 382.839 20.2727 381.602 20.2727V22.2727C382.547 22.2727 383.226 22.4819 383.713 22.8209L384.855 21.1791ZM381.602 20.2727C380.26 20.2727 379.066 20.5707 378.097 21.249L379.244 22.8874C379.79 22.5051 380.55 22.2727 381.602 22.2727V20.2727ZM378.1 21.2466C377.083 21.9524 376.521 23.0238 376.339 24.3151L378.32 24.594C378.441 23.7338 378.773 23.2143 379.241 22.8898L378.1 21.2466ZM377.33 23.4545H365.784V25.4545H377.33V23.4545ZM366.782 24.5258C366.921 22.5801 367.536 20.7924 368.638 19.1472L366.976 18.0346C365.683 19.9652 364.951 22.0865 364.787 24.3833L366.782 24.5258ZM368.637 19.1488C369.73 17.5223 371.341 16.1924 373.523 15.1798L372.681 13.3656C370.227 14.5046 368.308 16.0535 366.977 18.033L368.637 19.1488ZM373.528 15.1775C375.675 14.1674 378.412 13.6364 381.784 13.6364V11.6364C378.217 11.6364 375.166 12.1962 372.676 13.3679L373.528 15.1775ZM381.784 13.6364C384.207 13.6364 386.351 13.9228 388.226 14.4812L388.797 12.5643C386.702 11.9408 384.361 11.6364 381.784 11.6364V13.6364ZM388.233 14.4831C390.123 15.0314 391.698 15.7936 392.98 16.7545L394.18 15.1545C392.673 14.0246 390.87 13.1656 388.79 12.5623L388.233 14.4831ZM392.985 16.7587C394.27 17.7082 395.225 18.8074 395.875 20.0535L397.648 19.1283C396.844 17.5865 395.677 16.2615 394.174 15.1504L392.985 16.7587ZM395.881 20.065C396.542 21.2928 396.875 22.6291 396.875 24.0909H398.875C398.875 22.3103 398.466 20.6465 397.642 19.1168L395.881 20.065ZM396.875 24.0909V48H398.875V24.0909H396.875ZM397.875 47H386.148V49H397.875V47ZM387.148 48V43.0909H385.148V48H387.148ZM386.148 42.0909H385.875V44.0909H386.148V42.0909ZM384.993 42.6193C384.35 43.8214 383.584 44.7635 382.703 45.4703L383.956 47.0297C385.076 46.1304 386.006 44.9665 386.757 43.5626L384.993 42.6193ZM382.698 45.475C381.822 46.1887 380.816 46.7105 379.668 47.0385L380.218 48.9615C381.616 48.5622 382.867 47.9174 383.961 47.025L382.698 45.475ZM379.665 47.0394C378.511 47.3732 377.22 47.5455 375.784 47.5455V49.5455C377.379 49.5455 378.86 49.3541 380.221 48.9606L379.665 47.0394ZM379.875 41.6364C380.972 41.6364 382.012 41.4089 382.984 40.9495L382.129 39.1414C381.435 39.4699 380.687 39.6364 379.875 39.6364V41.6364ZM382.978 40.9525C383.979 40.4876 384.805 39.809 385.439 38.9221L383.811 37.7597C383.384 38.3577 382.832 38.8154 382.136 39.1384L382.978 40.9525ZM385.439 38.9221C386.109 37.9837 386.42 36.8704 386.42 35.6364H384.42C384.42 36.5235 384.202 37.2132 383.811 37.7597L385.439 38.9221ZM386.42 35.6364V32.7273H384.42V35.6364H386.42ZM385.042 31.8017C384.735 31.9272 384.404 32.0472 384.047 32.1612L384.657 34.0661C385.058 33.9377 385.439 33.8001 385.799 33.6528L385.042 31.8017ZM384.036 32.165C383.7 32.277 383.331 32.3837 382.928 32.4844L383.413 34.4247C383.859 34.3133 384.277 34.1927 384.668 34.0623L384.036 32.165ZM382.92 32.4865C382.533 32.5868 382.114 32.6808 381.662 32.7682L382.042 34.7318C382.53 34.6374 382.99 34.5345 383.421 34.4225L382.92 32.4865ZM381.656 32.7694C381.218 32.857 380.757 32.9377 380.271 33.0113L380.57 34.9887C381.084 34.9108 381.577 34.8248 382.048 34.7306L381.656 32.7694ZM380.266 33.012C379.22 33.1754 378.301 33.4537 377.545 33.8779L378.523 35.6221C379.01 35.3494 379.681 35.1276 380.575 34.988L380.266 33.012ZM377.552 33.8738C376.821 34.2761 376.225 34.8063 375.815 35.4817L377.526 36.5183C377.722 36.1937 378.035 35.8906 378.516 35.6262L377.552 33.8738ZM375.811 35.4895C375.424 36.1404 375.239 36.8646 375.239 37.6364H377.239C377.239 37.196 377.341 36.8293 377.53 36.5105L375.811 35.4895ZM375.239 37.6364C375.239 38.8713 375.69 39.93 376.659 40.6615L377.864 39.0658C377.469 38.7669 377.239 38.3408 377.239 37.6364H375.239ZM376.659 40.6615C377.552 41.3367 378.65 41.6364 379.875 41.6364V39.6364C378.979 39.6364 378.334 39.4208 377.864 39.0658L376.659 40.6615ZM423.688 13.0909V22.1818H425.688V13.0909H423.688ZM424.688 21.1818H401.688V23.1818H424.688V21.1818ZM402.688 22.1818V13.0909H400.688V22.1818H402.688ZM401.688 14.0909H424.688V12.0909H401.688V14.0909ZM406.142 5.72727H418.688V3.72727H406.142V5.72727ZM417.688 4.72727V36.7727H419.688V4.72727H417.688ZM417.688 36.7727C417.688 37.3678 417.789 37.9397 418.043 38.4472L419.832 37.5528C419.752 37.3937 419.688 37.1474 419.688 36.7727H417.688ZM418.052 38.464C418.326 38.9882 418.751 39.377 419.279 39.6294L420.142 37.8251C419.972 37.7442 419.882 37.6481 419.823 37.536L418.052 38.464ZM419.312 39.6443C419.828 39.8689 420.424 39.9545 421.051 39.9545V37.9545C420.588 37.9545 420.289 37.8886 420.109 37.8102L419.312 39.6443ZM421.051 39.9545C421.506 39.9545 422.008 39.9003 422.548 39.8021L422.19 37.8343C421.731 37.9179 421.354 37.9545 421.051 37.9545V39.9545ZM422.543 39.803C423.062 39.7114 423.47 39.6307 423.748 39.5611L423.263 37.6208C423.057 37.6724 422.707 37.7432 422.196 37.8334L422.543 39.803ZM422.526 38.7928L424.344 47.611L426.303 47.2072L424.485 38.389L422.526 38.7928ZM425.039 46.4506C424.508 46.6085 423.728 46.8076 422.689 47.0486L423.141 48.9969C424.193 48.753 425.019 48.543 425.609 48.3676L425.039 46.4506ZM422.686 47.0493C421.729 47.2744 420.564 47.4278 419.18 47.5014L419.286 49.4986C420.751 49.4207 422.04 49.2559 423.144 48.9961L422.686 47.0493ZM419.18 47.5014C416.391 47.6482 414.123 47.3569 412.338 46.6788L411.628 48.5485C413.752 49.3552 416.317 49.6548 419.286 49.4986L419.18 47.5014ZM412.344 46.6812C410.572 45.9944 409.287 44.9393 408.429 43.5263L406.719 44.5646C407.831 46.3941 409.484 47.7177 411.622 48.546L412.344 46.6812ZM408.429 43.5263C407.565 42.105 407.113 40.2719 407.142 37.967L405.142 37.9421C405.11 40.516 405.613 42.7435 406.719 44.5646L408.429 43.5263ZM439.534 47.5455C437.415 47.5455 435.583 47.1996 434.016 46.5341L433.234 48.3749C435.092 49.164 437.198 49.5455 439.534 49.5455V47.5455ZM434.026 46.5384C432.502 45.8715 431.324 44.8769 430.465 43.548L428.785 44.6338C429.866 46.3049 431.354 47.5527 433.224 48.3707L434.026 46.5384ZM430.465 43.548C429.627 42.2515 429.17 40.5458 429.17 38.3636H427.17C427.17 40.8179 427.684 42.9303 428.785 44.6338L430.465 43.548ZM429.17 38.3636C429.17 36.5651 429.478 35.0932 430.048 33.9123L428.247 33.0422C427.515 34.5584 427.17 36.344 427.17 38.3636H429.17ZM430.05 33.9084C430.634 32.6859 431.44 31.7024 432.47 30.9401L431.28 29.3326C429.977 30.2976 428.964 31.5414 428.245 33.0462L430.05 33.9084ZM432.47 30.9401C433.533 30.1535 434.78 29.5435 436.225 29.1185L435.661 27.1997C434.015 27.6838 432.551 28.3919 431.28 29.3326L432.47 30.9401ZM436.223 29.1192C437.71 28.6861 439.323 28.4016 441.064 28.2699L440.913 26.2756C439.049 26.4166 437.298 26.723 435.664 27.199L436.223 29.1192ZM441.066 28.2697C443.036 28.117 444.641 27.9321 445.87 27.7115L445.517 25.743C444.382 25.9467 442.851 26.1254 440.911 26.2757L441.066 28.2697ZM445.88 27.7097C447.12 27.4742 448.165 27.1295 448.88 26.5982L447.688 24.9927C447.342 25.2493 446.66 25.5258 445.507 25.7448L445.88 27.7097ZM448.895 26.5872C449.669 25.9899 450.08 25.1602 450.08 24.1818H448.08C448.08 24.5368 447.959 24.7829 447.673 25.0037L448.895 26.5872ZM450.08 24.1818V24.0909H448.08V24.1818H450.08ZM450.08 24.0909C450.08 22.8818 449.592 21.8659 448.605 21.1791L447.463 22.8209C447.87 23.1038 448.08 23.4819 448.08 24.0909H450.08ZM448.605 21.1791C447.699 20.5484 446.589 20.2727 445.352 20.2727V22.2727C446.297 22.2727 446.976 22.4819 447.463 22.8209L448.605 21.1791ZM445.352 20.2727C444.01 20.2727 442.816 20.5707 441.847 21.249L442.994 22.8874C443.54 22.5051 444.3 22.2727 445.352 22.2727V20.2727ZM441.85 21.2466C440.833 21.9524 440.271 23.0238 440.089 24.3151L442.07 24.594C442.191 23.7338 442.523 23.2143 442.991 22.8898L441.85 21.2466ZM441.08 23.4545H429.534V25.4545H441.08V23.4545ZM430.532 24.5258C430.671 22.5801 431.286 20.7924 432.388 19.1472L430.726 18.0346C429.433 19.9652 428.701 22.0865 428.537 24.3833L430.532 24.5258ZM432.387 19.1488C433.48 17.5223 435.091 16.1924 437.273 15.1798L436.431 13.3656C433.977 14.5046 432.058 16.0535 430.727 18.033L432.387 19.1488ZM437.278 15.1775C439.425 14.1674 442.162 13.6364 445.534 13.6364V11.6364C441.967 11.6364 438.916 12.1962 436.426 13.3679L437.278 15.1775ZM445.534 13.6364C447.957 13.6364 450.101 13.9228 451.976 14.4812L452.547 12.5643C450.452 11.9408 448.111 11.6364 445.534 11.6364V13.6364ZM451.983 14.4831C453.873 15.0314 455.448 15.7936 456.73 16.7545L457.93 15.1545C456.423 14.0246 454.62 13.1656 452.54 12.5623L451.983 14.4831ZM456.735 16.7587C458.02 17.7082 458.975 18.8074 459.625 20.0535L461.398 19.1283C460.594 17.5865 459.427 16.2615 457.924 15.1504L456.735 16.7587ZM459.631 20.065C460.292 21.2928 460.625 22.6291 460.625 24.0909H462.625C462.625 22.3103 462.216 20.6465 461.392 19.1168L459.631 20.065ZM460.625 24.0909V48H462.625V24.0909H460.625ZM461.625 47H449.898V49H461.625V47ZM450.898 48V43.0909H448.898V48H450.898ZM449.898 42.0909H449.625V44.0909H449.898V42.0909ZM448.743 42.6193C448.1 43.8214 447.334 44.7635 446.453 45.4703L447.706 47.0297C448.826 46.1304 449.756 44.9665 450.507 43.5626L448.743 42.6193ZM446.448 45.475C445.572 46.1887 444.566 46.7105 443.418 47.0385L443.968 48.9615C445.366 48.5622 446.617 47.9174 447.711 47.025L446.448 45.475ZM443.415 47.0394C442.261 47.3732 440.97 47.5455 439.534 47.5455V49.5455C441.129 49.5455 442.61 49.3541 443.971 48.9606L443.415 47.0394ZM443.625 41.6364C444.722 41.6364 445.762 41.4089 446.734 40.9495L445.879 39.1414C445.185 39.4699 444.437 39.6364 443.625 39.6364V41.6364ZM446.728 40.9525C447.729 40.4876 448.555 39.809 449.189 38.9221L447.561 37.7597C447.134 38.3577 446.582 38.8154 445.886 39.1384L446.728 40.9525ZM449.189 38.9221C449.859 37.9837 450.17 36.8704 450.17 35.6364H448.17C448.17 36.5235 447.952 37.2132 447.561 37.7597L449.189 38.9221ZM450.17 35.6364V32.7273H448.17V35.6364H450.17ZM448.792 31.8017C448.485 31.9272 448.154 32.0472 447.797 32.1612L448.407 34.0661C448.808 33.9377 449.189 33.8001 449.549 33.6528L448.792 31.8017ZM447.786 32.165C447.45 32.277 447.081 32.3837 446.678 32.4844L447.163 34.4247C447.609 34.3133 448.027 34.1927 448.418 34.0623L447.786 32.165ZM446.67 32.4865C446.283 32.5868 445.864 32.6808 445.412 32.7682L445.792 34.7318C446.28 34.6374 446.74 34.5345 447.171 34.4225L446.67 32.4865ZM445.406 32.7694C444.968 32.857 444.507 32.9377 444.021 33.0113L444.32 34.9887C444.834 34.9108 445.327 34.8248 445.798 34.7306L445.406 32.7694ZM444.016 33.012C442.97 33.1754 442.051 33.4537 441.295 33.8779L442.273 35.6221C442.76 35.3494 443.431 35.1276 444.325 34.988L444.016 33.012ZM441.302 33.8738C440.571 34.2761 439.975 34.8063 439.565 35.4817L441.276 36.5183C441.472 36.1937 441.785 35.8906 442.266 35.6262L441.302 33.8738ZM439.561 35.4895C439.174 36.1404 438.989 36.8646 438.989 37.6364H440.989C440.989 37.196 441.091 36.8293 441.28 36.5105L439.561 35.4895ZM438.989 37.6364C438.989 38.8713 439.44 39.93 440.409 40.6615L441.614 39.0658C441.219 38.7669 440.989 38.3408 440.989 37.6364H438.989ZM440.409 40.6615C441.302 41.3367 442.4 41.6364 443.625 41.6364V39.6364C442.729 39.6364 442.084 39.4208 441.614 39.0658L440.409 40.6615ZM479.165 28.3636V48H481.165V28.3636H479.165ZM480.165 47H467.619V49H480.165V47ZM468.619 48V13.0909H466.619V48H468.619ZM467.619 14.0909H479.528V12.0909H467.619V14.0909ZM478.528 13.0909V19.7273H480.528V13.0909H478.528ZM479.528 20.7273H479.892V18.7273H479.528V20.7273ZM480.838 20.0513C481.526 18.0435 482.723 16.4906 484.442 15.3578L483.342 13.6876C481.243 15.07 479.774 16.9868 478.946 19.4033L480.838 20.0513ZM484.439 15.3598C486.183 14.2204 488.23 13.6364 490.619 13.6364V11.6364C487.887 11.6364 485.45 12.3099 483.345 13.6856L484.439 15.3598ZM490.619 13.6364C492.931 13.6364 494.885 14.1662 496.521 15.1889L497.581 13.4929C495.581 12.2429 493.247 11.6364 490.619 11.6364V13.6364ZM496.529 15.194C498.2 16.2158 499.491 17.6206 500.409 19.43L502.193 18.5246C501.111 16.3946 499.569 14.7084 497.573 13.4878L496.529 15.194ZM500.412 19.4354C501.344 21.2424 501.815 23.3293 501.801 25.7213L503.801 25.7333C503.817 23.0646 503.289 20.6515 502.19 18.5192L500.412 19.4354ZM501.801 25.7273V48H503.801V25.7273H501.801ZM502.801 47H490.256V49H502.801V47ZM491.256 48V28.3636H489.256V48H491.256ZM491.256 28.3724C491.272 26.471 490.787 24.8448 489.678 23.6233L488.197 24.9676C488.876 25.7158 489.269 26.8017 489.256 28.3549L491.256 28.3724ZM489.684 23.6297C488.578 22.391 487.056 21.8182 485.256 21.8182V23.8182C486.607 23.8182 487.539 24.2302 488.191 24.9612L489.684 23.6297ZM485.256 21.8182C484.074 21.8182 482.992 22.0803 482.044 22.6381L483.058 24.3619C483.655 24.0106 484.377 23.8182 485.256 23.8182V21.8182ZM482.049 22.635C481.11 23.1796 480.394 23.9688 479.903 24.9684L481.699 25.8498C482.026 25.1827 482.477 24.6991 483.053 24.365L482.049 22.635ZM479.907 24.9619C479.415 25.9452 479.181 27.0861 479.165 28.3505L481.165 28.3768C481.178 27.3381 481.369 26.5093 481.696 25.8563L479.907 24.9619ZM407.142 37.9545V21.3409H405.142V37.9545H407.142ZM407.142 21.3409V4.72727H405.142V21.3409H407.142ZM340.593 33.6364H342.475V31.6364H340.593V33.6364ZM345.664 33.4864L348.664 32.9864L348.336 31.0136L345.336 31.5136L345.664 33.4864ZM342.491 33.6362L344.016 33.6118L343.984 31.612L342.459 31.6365L342.491 33.6362ZM344.074 33.6091L345.574 33.4972L345.426 31.5028L343.926 31.6147L344.074 33.6091ZM348.743 32.9701L350.743 32.4701L350.257 30.5299L348.257 31.0299L348.743 32.9701ZM350.867 32.4303L352.424 31.8167L351.69 29.956L350.133 30.5697L350.867 32.4303Z" fill="black" mask="url(#path-1-outside-1_1_4)"/>
</svg>
